<svg xmlns="http://www.w3.org/2000/svg" xmlns:xlink="http://www.w3.org/1999/xlink" width="500" zoomAndPan="magnify" viewBox="0 0 375 374.999991" height="500" preserveAspectRatio="xMidYMid meet" version="1.0"><path fill="#e3f2ff" d="M 336.96875 181.140625 C 345 170.726562 343.464844 157.050781 333.175781 148.046875 C 342.082031 131.292969 333.027344 109.398438 316.511719 107.195312 C 319.039062 102.875 320.472656 97.953125 320.472656 92.730469 C 320.472656 65.582031 284.558594 51.625 262.667969 69.9375 C 248.089844 46.597656 212.371094 35.511719 185.585938 45.941406 C 189.207031 8.289062 146.558594 -0.105469 119.453125 32.980469 C 114.066406 39.558594 110.289062 46.757812 108.144531 53.898438 C 89.0625 50.347656 71.546875 65.199219 72 84.648438 C 59.503906 83.800781 46.183594 97.730469 43.660156 115.632812 C 27.078125 114.800781 12.792969 121.371094 7.921875 133.617188 C 0.046875 153.410156 20.113281 178.25 48.871094 184.835938 C 59.152344 221.722656 95.117188 232.167969 110.421875 203.085938 C 128.410156 238.773438 190.292969 245.847656 209.605469 214.652344 C 221.765625 237.101562 249.554688 239.757812 264.960938 220.328125 C 273.210938 229.964844 289.453125 236.527344 308.148438 236.527344 C 355.601562 236.527344 374.980469 198.492188 336.96875 181.140625 " fill-opacity="1" fill-rule="nonzero"/><path fill="#ffffff" d="M 335.652344 150.496094 C 328.488281 144.046875 317.074219 138.917969 303.265625 136.042969 C 316.054688 108.574219 281.40625 82.609375 248.753906 94.480469 C 238.445312 61.359375 205.628906 51.238281 184.621094 74.5 C 173.089844 65.757812 157.199219 65.636719 145.550781 74.132812 C 125.992188 59.863281 97.996094 71.140625 93.945312 95.171875 C 72.652344 91.394531 53.992188 109.058594 55.5625 129.539062 C 40.433594 125.976562 21.875 126.933594 8.128906 133.136719 C 13.175781 121.207031 27.296875 114.820312 43.667969 115.632812 C 46.179688 97.789062 59.433594 83.800781 72 84.652344 C 72 74.59375 75.941406 66.613281 82.394531 60.960938 C 82.425781 60.933594 82.433594 60.910156 82.460938 60.910156 C 89.703125 54.570312 99.195312 52.222656 108.144531 53.898438 C 110.285156 46.753906 114.066406 39.558594 119.453125 32.976562 C 146.632812 -0.195312 189.191406 8.40625 185.585938 45.941406 C 212.25 35.542969 248.039062 46.515625 262.667969 69.9375 C 284.601562 51.628906 320.476562 65.605469 320.476562 92.726562 C 320.476562 97.960938 319.039062 102.875 316.511719 107.191406 C 333.050781 109.40625 342.085938 131.320312 333.171875 148.050781 C 334.046875 148.824219 334.882812 149.636719 335.652344 150.496094 " fill-opacity="1" fill-rule="nonzero"/><path fill="#b6d5f0" d="M 308.144531 236.527344 C 289.460938 236.527344 273.207031 229.972656 264.96875 220.328125 C 249.570312 239.738281 221.757812 237.101562 209.605469 214.652344 C 190.285156 245.835938 128.414062 238.785156 110.417969 203.085938 C 95.105469 232.175781 59.160156 221.703125 48.871094 184.839844 C 28.425781 180.164062 12.78125 166.078125 8.59375 155.253906 C 8.59375 155.253906 28.136719 167.085938 48.144531 166.046875 C 51.601562 165.867188 83.351562 199.070312 100.625 195.734375 C 109.316406 194.0625 116.355469 187.988281 120.875 179.394531 C 138.835938 215.019531 200.703125 222.214844 220.066406 190.960938 C 232.167969 213.316406 259.945312 216.121094 275.425781 196.636719 C 291.992188 216 334.59375 218.449219 356.613281 201.519531 C 360.863281 220.214844 337.660156 236.527344 308.144531 236.527344 " fill-opacity="1" fill-rule="nonzero"/><path fill="#b6d5f0" d="M 82.578125 155.253906 C 67.195312 180.25 35.964844 182.347656 17.359375 159.816406 C 38.253906 169.980469 63.296875 168.230469 82.578125 155.253906 " fill-opacity="1" fill-rule="nonzero"/><path fill="#b6d5f0" d="M 325.15625 212.894531 C 298.582031 225.339844 271.328125 209.949219 268.136719 180.890625 C 280.023438 200.867188 301.917969 213.15625 325.15625 212.894531 " fill-opacity="1" fill-rule="nonzero"/><path fill="#b6d5f0" d="M 82.460938 60.910156 C 82.433594 60.910156 82.425781 60.933594 82.394531 60.960938 L 82.460938 60.960938 L 82.460938 60.910156 " fill-opacity="1" fill-rule="nonzero"/><path fill="#ffffff" d="M 218.449219 96.828125 C 235.4375 83.410156 261.171875 88.1875 272.226562 106.703125 C 257.089844 95.882812 236.4375 92.089844 218.449219 96.828125 " fill-opacity="1" fill-rule="nonzero"/><path fill="#ffffff" d="M 259.167969 143.445312 C 281.835938 122.515625 318.929688 126.484375 336.664062 151.582031 C 313.972656 137.863281 284.210938 134.738281 259.167969 143.445312 " fill-opacity="1" fill-rule="nonzero"/><path fill="#ffffff" d="M 128.863281 94.804688 C 134.191406 73.816406 157.527344 61.949219 177.554688 69.925781 C 158.960938 70.539062 140.265625 80.09375 128.863281 94.804688 " fill-opacity="1" fill-rule="nonzero"/><path fill="#ffffff" d="M 38.828125 146.6875 C 42.929688 122.539062 66.816406 110.410156 88.671875 121.222656 C 68.980469 120.5625 49.839844 130.335938 38.828125 146.6875 " fill-opacity="1" fill-rule="nonzero"/></svg>